# xmcd CD Database Entry
#
# Track frame offsets:
# 150
# 13324
# 28572
# 55042
# 69816
# 91117
# 113076
# 134999
# 158674
# 177130
# 194183
#
# Disc length: 3058 seconds
#
# Revision: 3
# Processed by: cddbd v1.4PL0 Copyright (c) Steve Scherf et al.
# Submitted via: tcd 2.0b
#
DISCID=910bf00b
DTITLE=3 Ladies of Blues - Most Wanted
DYEAR=1900
DGENRE=
TTITLE0=Most Wanted Ladies of Blues
TTITLE1=See See Rider
TTITLE2=At Last
TTITLE3=It's A Highway To Heaven
TTITLE4=What A Difference A Day Makes
TTITLE5=Willow Weep For Me
TTITLE6=Everything Must Change - Feelings - My Funny Valentine
TTITLE7=St. Louis Blues
TTITLE8=Nobody Knows You When You're Down And Out
TTITLE9=Baby What You Want Me To Do
TTITLE10=How Great Thou Art
EXTD=
EXTT0=
EXTT1=
EXTT2=
EXTT3=
EXTT4=
EXTT5=
EXTT6=
EXTT7=
EXTT8=
EXTT9=
EXTT10=
PLAYORDER=
